<?xml version="1.0" encoding="UTF-8" standalone="no"?><!-- Generator: Gravit.io --><svg xmlns="http://www.w3.org/2000/svg" xmlns:xlink="http://www.w3.org/1999/xlink" style="isolation:isolate" viewBox="0 0 4000 2000" width="4000pt" height="2000pt"><defs><clipPath id="_clipPath_8CBYLKkfVGYDIRsUpGdN2Epc771GqCXJ"><rect width="4000" height="2000"/></clipPath></defs><g clip-path="url(#_clipPath_8CBYLKkfVGYDIRsUpGdN2Epc771GqCXJ)"><defs><filter id="Zb3XxBepLwSeevkBBszBMZwj4PV4FPJw" x="-200%" y="-200%" width="400%" height="400%" filterUnits="objectBoundingBox" color-interpolation-filters="sRGB"><feGaussianBlur xmlns="http://www.w3.org/2000/svg" in="SourceGraphic" stdDeviation="2.146804531419514"/><feOffset xmlns="http://www.w3.org/2000/svg" dx="1" dy="2" result="pf_100_offsetBlur"/><feFlood xmlns="http://www.w3.org/2000/svg" flood-color="#000000" flood-opacity="0.65"/><feComposite xmlns="http://www.w3.org/2000/svg" in2="pf_100_offsetBlur" operator="in" result="pf_100_dropShadow"/><feBlend xmlns="http://www.w3.org/2000/svg" in="SourceGraphic" in2="pf_100_dropShadow" mode="normal"/></filter></defs><g opacity="0.84" filter="url(#Zb3XxBepLwSeevkBBszBMZwj4PV4FPJw)"><path d=" M 2547.37 210.027 C 2520.827 210.027 2494.284 220.222 2474.845 240.885 L 2403.603 316.476 L 2403.501 316.585 L 2391.781 329.152 L 2384.164 337.248 L 2384.164 337.357 L 2349.415 374.294 C 2346.72 373.218 2343.88 372.61 2341.003 372.495 L 1281.935 372.495 C 1239.57 372.495 1205 409.241 1205 454.274 L 1205 1708.221 C 1205 1753.254 1239.57 1790 1281.935 1790 L 2461.612 1790 C 2503.978 1790 2538.548 1753.254 2538.548 1708.221 L 2538.548 790.223 L 2674.39 645.637 L 2764.943 549.247 C 2784.267 528.863 2795.093 501.094 2794.999 472.157 C 2795.093 443.219 2784.267 415.45 2764.943 395.066 L 2619.894 240.885 C 2600.558 220.331 2573.913 210 2547.37 210 L 2547.37 210.027 Z  M 2547.37 264.001 C 2560.705 264.001 2573.913 269.099 2583.632 279.43 L 2728.681 433.611 C 2738.401 443.97 2743.709 457.6 2743.709 472.157 C 2743.709 486.741 2738.401 500.37 2728.681 510.702 L 2656.157 587.792 L 2438.583 356.521 L 2511.108 279.43 C 2520.792 269.38 2533.836 263.83 2547.37 264.001 Z  M 2402.295 395.066 L 2619.894 626.365 L 2583.53 665.101 C 2573.5 654.951 2557.689 655.145 2547.883 665.537 L 2511.723 704.082 C 2501.883 714.527 2501.689 731.413 2511.287 742.11 L 2474.948 780.764 L 2257.349 549.465 L 2402.295 395.066 Z  M 1281.935 427.015 L 2299.817 427.015 L 2203.956 529.238 C 2203.545 529.566 2203.161 529.675 2202.75 530.084 C 2202.468 530.411 2202.366 530.929 2201.955 531.365 L 1695.771 1070.616 C 1691.636 1074.9 1689.049 1080.593 1688.462 1086.7 L 1669.741 1258.681 L 1651.482 1393.589 C 1650.379 1402.122 1653.098 1410.627 1658.688 1416.815 C 1663.612 1421.912 1670.126 1424.693 1676.922 1424.693 C 1678.127 1424.693 1679.333 1424.693 1680.538 1424.475 L 1806.763 1405.311 L 1970.456 1386.883 C 1976.325 1386.205 1981.799 1383.415 1985.972 1378.978 L 2487.258 844.879 L 2487.258 1708.221 C 2487.258 1723.214 2475.717 1735.481 2461.612 1735.481 L 1281.935 1735.481 C 1267.831 1735.481 1256.29 1723.214 1256.29 1708.221 L 1256.29 454.274 C 1256.29 439.281 1267.831 427.015 1281.935 427.015 Z  M 2384.677 464.824 C 2377.906 464.827 2371.417 467.702 2366.648 472.811 L 2330.284 511.356 C 2322.942 519.163 2320.753 530.905 2324.741 541.098 C 2328.73 551.29 2338.107 557.919 2348.492 557.888 C 2355.302 557.894 2361.834 555.021 2366.648 549.901 L 2402.808 511.356 C 2410.14 503.56 2412.333 491.837 2408.365 481.652 C 2404.396 471.468 2395.048 464.826 2384.677 464.824 Z  M 1410.161 536.053 C 1381.9 536.053 1358.871 560.533 1358.871 590.573 L 1358.871 1571.922 C 1358.871 1601.963 1381.9 1626.442 1410.161 1626.442 L 1487.097 1626.442 C 1501.26 1626.442 1512.742 1614.237 1512.742 1599.182 C 1512.742 1584.127 1501.26 1571.922 1487.097 1571.922 L 1410.161 1571.922 L 1410.161 590.573 L 2059.804 590.573 C 2073.968 590.573 2085.449 578.368 2085.449 563.313 C 2085.449 548.258 2073.968 536.053 2059.804 536.053 L 1410.161 536.053 Z  M 2475.333 561.187 C 2468.532 561.188 2462.01 564.061 2457.201 569.174 L 2420.939 607.719 C 2414.273 614.563 2411.599 624.699 2413.946 634.229 C 2416.293 643.76 2423.295 651.203 2432.261 653.698 C 2441.228 656.193 2450.763 653.351 2457.201 646.264 L 2493.464 607.719 C 2500.796 599.923 2502.989 588.2 2499.02 578.015 C 2495.052 567.831 2485.703 561.189 2475.333 561.187 Z  M 2221.189 588.01 L 2438.763 819.309 L 1985.972 1301.561 L 1974.431 1182.626 C 1973.068 1168.726 1962.062 1158.156 1948.915 1158.12 L 1902.035 1158.12 L 1902.035 1119.575 L 2039.673 973.381 C 2049.674 962.613 2049.674 945.494 2039.673 934.727 C 2029.623 924.072 2013.357 924.072 2003.308 934.727 L 1866.978 1079.748 L 1769.706 1068.899 L 2221.189 588.01 Z  M 2166.591 772.559 C 2159.974 772.559 2153.46 775.203 2148.383 780.546 L 2075.832 857.636 C 2065.831 868.267 2065.831 885.523 2075.832 896.29 C 2085.881 906.843 2102.046 906.843 2112.095 896.29 L 2184.722 819.2 C 2192.023 811.376 2194.196 799.66 2190.237 789.475 C 2186.278 779.29 2176.958 772.623 2166.591 772.559 Z  M 2359.032 1083.483 C 2344.868 1083.483 2333.387 1095.687 2333.387 1110.743 L 2333.387 1571.922 L 2256.451 1571.922 C 2242.288 1571.922 2230.806 1584.127 2230.806 1599.182 C 2230.806 1614.237 2242.288 1626.442 2256.451 1626.442 L 2333.387 1626.442 C 2361.648 1626.442 2384.677 1601.963 2384.677 1571.922 L 2384.677 1110.743 C 2384.677 1095.687 2373.195 1083.483 2359.032 1083.483 Z  M 1736.444 1120.011 L 1850.745 1132.796 L 1850.745 1185.271 C 1850.718 1192.519 1853.407 1199.481 1858.22 1204.617 C 1863.032 1209.752 1869.571 1212.639 1876.39 1212.639 L 1925.885 1212.639 L 1937.785 1335.635 L 1813.277 1349.592 L 1721.904 1252.466 L 1736.444 1120.011 Z  M 1615.322 1517.403 C 1601.159 1517.403 1589.677 1529.608 1589.677 1544.663 L 1589.677 1599.182 C 1589.677 1614.237 1601.159 1626.442 1615.322 1626.442 C 1629.486 1626.442 1640.968 1614.237 1640.968 1599.182 L 1640.968 1544.663 C 1640.968 1529.608 1629.486 1517.403 1615.322 1517.403 Z  M 1743.548 1517.403 C 1729.385 1517.403 1717.903 1529.608 1717.903 1544.663 L 1717.903 1599.182 C 1717.903 1614.237 1729.385 1626.442 1743.548 1626.442 C 1757.712 1626.442 1769.193 1614.237 1769.193 1599.182 L 1769.193 1544.663 C 1769.193 1529.608 1757.712 1517.403 1743.548 1517.403 Z  M 1871.774 1517.403 C 1857.611 1517.403 1846.129 1529.608 1846.129 1544.663 L 1846.129 1599.182 C 1846.129 1614.237 1857.611 1626.442 1871.774 1626.442 C 1885.937 1626.442 1897.419 1614.237 1897.419 1599.182 L 1897.419 1544.663 C 1897.419 1529.608 1885.937 1517.403 1871.774 1517.403 Z  M 2000 1517.403 C 1985.836 1517.403 1974.355 1529.608 1974.355 1544.663 L 1974.355 1599.182 C 1974.355 1614.237 1985.836 1626.442 2000 1626.442 C 2014.163 1626.442 2025.645 1614.237 2025.645 1599.182 L 2025.645 1544.663 C 2025.645 1529.608 2014.163 1517.403 2000 1517.403 Z  M 2128.225 1517.403 C 2114.062 1517.403 2102.58 1529.608 2102.58 1544.663 L 2102.58 1599.182 C 2102.58 1614.237 2114.062 1626.442 2128.225 1626.442 C 2142.389 1626.442 2153.871 1614.237 2153.871 1599.182 L 2153.871 1544.663 C 2153.871 1529.608 2142.389 1517.403 2128.225 1517.403 Z " fill="rgb(255,255,255)"/></g></g></svg>