<?xml version="1.0" encoding="UTF-8" standalone="no"?><!-- Generator: Gravit.io --><svg xmlns="http://www.w3.org/2000/svg" xmlns:xlink="http://www.w3.org/1999/xlink" style="isolation:isolate" viewBox="0 0 4000 2000" width="4000pt" height="2000pt"><defs><clipPath id="_clipPath_hnjzj62V6FjtrzMqTAlhz5MdXzIdGj3u"><rect width="4000" height="2000"/></clipPath></defs><g clip-path="url(#_clipPath_hnjzj62V6FjtrzMqTAlhz5MdXzIdGj3u)"><defs><filter id="cwq6JFfCZ9OlyWYeXX4maoQzSjFVKHGN" x="-200%" y="-200%" width="400%" height="400%" filterUnits="objectBoundingBox" color-interpolation-filters="sRGB"><feGaussianBlur xmlns="http://www.w3.org/2000/svg" in="SourceGraphic" stdDeviation="2.146804531419514"/><feOffset xmlns="http://www.w3.org/2000/svg" dx="1" dy="2" result="pf_100_offsetBlur"/><feFlood xmlns="http://www.w3.org/2000/svg" flood-color="#000000" flood-opacity="0.65"/><feComposite xmlns="http://www.w3.org/2000/svg" in2="pf_100_offsetBlur" operator="in" result="pf_100_dropShadow"/><feBlend xmlns="http://www.w3.org/2000/svg" in="SourceGraphic" in2="pf_100_dropShadow" mode="normal"/></filter></defs><g opacity="0.79" filter="url(#cwq6JFfCZ9OlyWYeXX4maoQzSjFVKHGN)"><path d=" M 952.338 946.084 L 952.338 513.707 L 1154.221 513.707 L 1154.221 609.232 L 1053.906 609.232 L 1053.906 687.789 L 1145.443 687.789 L 1145.443 766.974 L 1053.906 766.974 L 1053.906 850.559 L 1154.221 850.559 L 1154.221 946.084 L 952.338 946.084 Z  M 1194.765 946.084 L 1194.765 635.627 L 1278.779 635.627 L 1278.779 699.73 L 1278.779 699.73 Q 1292.99 662.651 1311.172 644.74 L 1311.172 644.74 L 1311.172 644.74 Q 1329.354 626.829 1354.433 626.829 L 1354.433 626.829 L 1354.433 626.829 Q 1379.093 626.829 1397.275 645.368 L 1397.275 645.368 L 1397.275 645.368 Q 1415.457 663.908 1424.653 695.33 L 1424.653 695.33 L 1424.653 695.33 Q 1451.404 626.829 1502.397 626.829 L 1502.397 626.829 L 1502.397 626.829 Q 1526.64 626.829 1544.822 646.311 L 1544.822 646.311 L 1544.822 646.311 Q 1563.004 665.793 1573.035 702.558 L 1573.035 702.558 L 1573.035 702.558 Q 1583.067 739.322 1583.067 788.97 L 1583.067 788.97 L 1583.067 946.084 L 1494.873 946.084 L 1494.873 788.97 L 1494.873 788.97 Q 1494.873 756.919 1487.559 740.579 L 1487.559 740.579 L 1487.559 740.579 Q 1480.244 724.239 1467.287 724.239 L 1467.287 724.239 L 1467.287 724.239 Q 1453.075 724.239 1442.835 742.464 L 1442.835 742.464 L 1442.835 742.464 Q 1432.595 760.69 1432.595 786.456 L 1432.595 786.456 L 1432.595 946.084 L 1345.237 946.084 L 1345.237 788.97 L 1345.237 788.97 Q 1345.237 756.919 1337.922 740.579 L 1337.922 740.579 L 1337.922 740.579 Q 1330.608 724.239 1317.233 724.239 L 1317.233 724.239 L 1317.233 724.239 Q 1303.021 724.239 1292.99 742.464 L 1292.99 742.464 L 1292.99 742.464 Q 1282.958 760.69 1282.958 786.456 L 1282.958 786.456 L 1282.958 946.084 L 1194.765 946.084 Z  M 1623.611 1052.921 L 1623.611 635.627 L 1711.804 635.627 L 1711.804 690.303 L 1711.804 690.303 Q 1731.867 626.829 1779.934 626.829 L 1779.934 626.829 L 1779.934 626.829 Q 1807.939 626.829 1831.555 647.882 L 1831.555 647.882 L 1831.555 647.882 Q 1855.171 668.935 1868.755 706.014 L 1868.755 706.014 L 1868.755 706.014 Q 1882.339 743.093 1882.339 788.97 L 1882.339 788.97 L 1882.339 788.97 Q 1882.339 834.847 1868.337 871.926 L 1868.337 871.926 L 1868.337 871.926 Q 1854.335 909.005 1830.719 930.058 L 1830.719 930.058 L 1830.719 930.058 Q 1807.103 951.111 1780.352 951.111 L 1780.352 951.111 L 1780.352 951.111 Q 1732.703 951.111 1711.804 887.638 L 1711.804 887.638 L 1711.804 1027.783 L 1623.611 1052.921 Z  M 1753.602 851.816 L 1753.602 851.816 Q 1770.739 851.816 1782.86 832.962 L 1782.86 832.962 L 1782.86 832.962 Q 1794.982 814.108 1794.982 788.97 L 1794.982 788.97 L 1794.982 788.97 Q 1794.982 762.575 1782.651 744.35 L 1782.651 744.35 L 1782.651 744.35 Q 1770.321 726.125 1753.602 726.125 L 1753.602 726.125 L 1753.602 726.125 Q 1736.465 726.125 1724.343 744.036 L 1724.343 744.036 L 1724.343 744.036 Q 1712.222 761.947 1712.222 786.456 L 1712.222 786.456 L 1712.222 788.97 L 1712.222 788.97 Q 1712.222 815.365 1724.552 833.59 L 1724.552 833.59 L 1724.552 833.59 Q 1736.883 851.816 1753.602 851.816 L 1753.602 851.816 Z  M 1987.67 951.111 L 1987.67 951.111 Q 1952.141 951.111 1932.706 917.489 L 1932.706 917.489 L 1932.706 917.489 Q 1913.27 883.867 1913.27 825.421 L 1913.27 825.421 L 1913.27 531.932 L 2001.463 512.45 L 2001.463 815.994 L 2001.463 815.994 Q 2001.463 833.59 2007.106 841.446 L 2007.106 841.446 L 2007.106 841.446 Q 2012.748 849.302 2026.96 849.302 L 2026.96 849.302 L 2026.96 849.302 Q 2037.409 849.302 2047.441 841.76 L 2047.441 841.76 L 2050.366 929.744 L 2050.366 929.744 Q 2022.362 951.111 1987.67 951.111 L 1987.67 951.111 Z  M 2182.03 951.111 L 2182.03 951.111 Q 2146.919 951.111 2119.542 930.372 L 2119.542 930.372 L 2119.542 930.372 Q 2092.164 909.633 2076.908 872.869 L 2076.908 872.869 L 2076.908 872.869 Q 2061.652 836.104 2061.652 788.342 L 2061.652 788.342 L 2061.652 788.342 Q 2061.652 740.579 2077.117 703.814 L 2077.117 703.814 L 2077.117 703.814 Q 2092.582 667.05 2119.96 646.939 L 2119.96 646.939 L 2119.96 646.939 Q 2147.337 626.829 2182.448 626.829 L 2182.448 626.829 L 2182.448 626.829 Q 2217.976 626.829 2245.353 647.254 L 2245.353 647.254 L 2245.353 647.254 Q 2272.731 667.678 2287.778 704.129 L 2287.778 704.129 L 2287.778 704.129 Q 2302.825 740.579 2302.825 788.342 L 2302.825 788.342 L 2302.825 788.342 Q 2302.825 836.733 2287.569 873.497 L 2287.569 873.497 L 2287.569 873.497 Q 2272.313 910.262 2244.935 930.687 L 2244.935 930.687 L 2244.935 930.687 Q 2217.558 951.111 2182.03 951.111 L 2182.03 951.111 Z  M 2182.865 856.843 L 2182.865 856.843 Q 2200.003 856.843 2211.079 837.675 L 2211.079 837.675 L 2211.079 837.675 Q 2222.155 818.508 2222.155 788.342 L 2222.155 788.342 L 2222.155 788.342 Q 2222.155 758.176 2211.079 739.008 L 2211.079 739.008 L 2211.079 739.008 Q 2200.003 719.84 2182.865 719.84 L 2182.865 719.84 L 2182.865 719.84 Q 2165.728 719.84 2154.652 739.008 L 2154.652 739.008 L 2154.652 739.008 Q 2143.576 758.176 2143.576 788.342 L 2143.576 788.342 L 2143.576 788.342 Q 2143.576 818.508 2154.652 837.675 L 2154.652 837.675 L 2154.652 837.675 Q 2165.728 856.843 2182.865 856.843 L 2182.865 856.843 Z  M 2445.356 1090 L 2445.356 1090 Q 2422.367 1090 2401.468 1083.087 L 2401.468 1083.087 L 2408.156 990.076 L 2408.156 990.076 Q 2424.457 993.846 2438.25 993.846 L 2438.25 993.846 L 2438.25 993.846 Q 2462.911 993.846 2475.868 971.536 L 2475.868 971.536 L 2475.868 971.536 Q 2488.826 949.226 2489.244 887.638 L 2489.244 887.638 L 2489.244 887.638 Q 2467.509 950.483 2419.441 950.483 L 2419.441 950.483 L 2419.441 950.483 Q 2378.897 950.483 2356.117 907.434 L 2356.117 907.434 L 2356.117 907.434 Q 2333.338 864.385 2333.338 788.342 L 2333.338 788.342 L 2333.338 631.228 L 2421.113 631.228 L 2421.113 807.824 L 2421.113 807.824 Q 2421.113 829.191 2429.055 843.331 L 2429.055 843.331 L 2429.055 843.331 Q 2436.996 857.472 2450.79 857.472 L 2450.79 857.472 L 2450.79 857.472 Q 2465.001 857.472 2473.987 839.247 L 2473.987 839.247 L 2473.987 839.247 Q 2482.974 821.021 2482.974 791.484 L 2482.974 791.484 L 2482.974 631.228 L 2571.167 631.228 L 2571.167 866.27 L 2571.167 866.27 Q 2571.167 975.621 2538.565 1032.811 L 2538.565 1032.811 L 2538.565 1032.811 Q 2505.963 1090 2445.356 1090 L 2445.356 1090 Z  M 2721.639 951.111 L 2721.639 951.111 Q 2686.947 951.111 2659.988 930.058 L 2659.988 930.058 L 2659.988 930.058 Q 2633.028 909.005 2617.981 872.24 L 2617.981 872.24 L 2617.981 872.24 Q 2602.934 835.476 2602.934 788.97 L 2602.934 788.97 L 2602.934 788.97 Q 2602.934 741.208 2618.399 704.129 L 2618.399 704.129 L 2618.399 704.129 Q 2633.864 667.05 2660.197 646.939 L 2660.197 646.939 L 2660.197 646.939 Q 2686.529 626.829 2718.714 626.829 L 2718.714 626.829 L 2718.714 626.829 Q 2749.644 626.829 2771.588 647.254 L 2771.588 647.254 L 2771.588 647.254 Q 2793.532 667.678 2804.399 702.558 L 2804.399 702.558 L 2804.399 702.558 Q 2815.267 737.437 2815.267 780.8 L 2815.267 780.8 L 2815.267 780.8 Q 2815.267 792.112 2814.431 797.14 L 2814.431 797.14 L 2689.037 821.65 L 2689.037 821.65 Q 2694.053 843.646 2705.338 853.387 L 2705.338 853.387 L 2705.338 853.387 Q 2716.624 863.128 2735.015 863.128 L 2735.015 863.128 L 2735.015 863.128 Q 2763.437 863.128 2796.458 841.132 L 2796.458 841.132 L 2806.907 925.345 L 2806.907 925.345 Q 2768.035 951.111 2721.639 951.111 L 2721.639 951.111 Z  M 2685.693 763.832 L 2750.48 742.464 L 2750.48 742.464 Q 2743.792 702.872 2718.714 702.872 L 2718.714 702.872 L 2718.714 702.872 Q 2703.666 702.872 2694.889 719.84 L 2694.889 719.84 L 2694.889 719.84 Q 2686.111 736.808 2685.693 763.832 L 2685.693 763.832 Z  M 2954.035 951.111 L 2954.035 951.111 Q 2919.343 951.111 2892.384 930.058 L 2892.384 930.058 L 2892.384 930.058 Q 2865.424 909.005 2850.377 872.24 L 2850.377 872.24 L 2850.377 872.24 Q 2835.33 835.476 2835.33 788.97 L 2835.33 788.97 L 2835.33 788.97 Q 2835.33 741.208 2850.795 704.129 L 2850.795 704.129 L 2850.795 704.129 Q 2866.26 667.05 2892.593 646.939 L 2892.593 646.939 L 2892.593 646.939 Q 2918.925 626.829 2951.11 626.829 L 2951.11 626.829 L 2951.11 626.829 Q 2982.04 626.829 3003.984 647.254 L 3003.984 647.254 L 3003.984 647.254 Q 3025.928 667.678 3036.795 702.558 L 3036.795 702.558 L 3036.795 702.558 Q 3047.663 737.437 3047.663 780.8 L 3047.663 780.8 L 3047.663 780.8 Q 3047.663 792.112 3046.827 797.14 L 3046.827 797.14 L 2921.433 821.65 L 2921.433 821.65 Q 2926.449 843.646 2937.734 853.387 L 2937.734 853.387 L 2937.734 853.387 Q 2949.02 863.128 2967.411 863.128 L 2967.411 863.128 L 2967.411 863.128 Q 2995.833 863.128 3028.853 841.132 L 3028.853 841.132 L 3039.303 925.345 L 3039.303 925.345 Q 3000.431 951.111 2954.035 951.111 L 2954.035 951.111 Z  M 2918.089 763.832 L 2982.876 742.464 L 2982.876 742.464 Q 2976.188 702.872 2951.11 702.872 L 2951.11 702.872 L 2951.11 702.872 Q 2936.062 702.872 2927.285 719.84 L 2927.285 719.84 L 2927.285 719.84 Q 2918.507 736.808 2918.089 763.832 L 2918.089 763.832 Z " fill="rgb(255,255,255)"/></g><defs><filter id="z04rDCfN2BooSaWudC2KLFpkWwjaPbI2" x="-200%" y="-200%" width="400%" height="400%" filterUnits="objectBoundingBox" color-interpolation-filters="sRGB"><feGaussianBlur xmlns="http://www.w3.org/2000/svg" in="SourceGraphic" stdDeviation="2.146804531419514"/><feOffset xmlns="http://www.w3.org/2000/svg" dx="1" dy="2" result="pf_100_offsetBlur"/><feFlood xmlns="http://www.w3.org/2000/svg" flood-color="#000000" flood-opacity="0.65"/><feComposite xmlns="http://www.w3.org/2000/svg" in2="pf_100_offsetBlur" operator="in" result="pf_100_dropShadow"/><feBlend xmlns="http://www.w3.org/2000/svg" in="SourceGraphic" in2="pf_100_dropShadow" mode="normal"/></filter></defs><g opacity="0.79" filter="url(#z04rDCfN2BooSaWudC2KLFpkWwjaPbI2)"><path d=" M 1502.2 1466.022 L 1506.021 1516.08 L 1339.167 1532.275 L 1344.899 1454.244 L 1403.489 1458.906 L 1399.243 1260.883 L 1339.167 1268.49 L 1346.597 1166.901 L 1481.396 1166.901 L 1588.386 1408.603 L 1659.5 1166.901 L 1793.875 1166.901 L 1793.875 1244.688 L 1732.101 1244.688 L 1737.408 1457.434 L 1802.578 1459.397 L 1806.187 1516.08 L 1633.602 1532.275 L 1633.602 1454.244 L 1695.588 1456.452 L 1671.813 1270.943 L 1592.632 1493.505 L 1560.365 1493.505 L 1454.436 1267.999 L 1442.124 1461.36 L 1502.2 1466.022 Z  M 2125.883 1149.725 L 2160.485 1165.429 L 2117.179 1289.102 L 2117.179 1289.102 Q 2095.314 1275.36 2073.556 1268.367 L 2073.556 1268.367 L 2073.556 1268.367 Q 2051.797 1261.373 2033.753 1258.184 L 2033.753 1258.184 L 2033.753 1258.184 Q 2012.737 1254.503 1993.632 1254.257 L 1993.632 1254.257 L 1993.632 1254.257 Q 1977.286 1254.748 1961.046 1256.711 L 1961.046 1256.711 L 1961.046 1256.711 Q 1944.807 1258.674 1930.159 1263.214 L 1930.159 1263.214 L 1930.159 1263.214 Q 1915.512 1267.753 1902.881 1274.87 L 1902.881 1274.87 L 1902.881 1274.87 Q 1890.25 1281.986 1881.016 1292.66 L 1881.016 1292.66 L 1881.016 1292.66 Q 1871.782 1303.334 1866.581 1318.057 L 1866.581 1318.057 L 1866.581 1318.057 Q 1861.38 1332.78 1861.38 1351.92 L 1861.38 1351.92 L 1861.38 1351.92 Q 1861.38 1375.967 1869.022 1395.598 L 1869.022 1395.598 L 1869.022 1395.598 Q 1876.664 1415.228 1891.949 1429.215 L 1891.949 1429.215 L 1891.949 1429.215 Q 1907.233 1443.202 1930.159 1450.809 L 1930.159 1450.809 L 1930.159 1450.809 Q 1953.086 1458.415 1983.654 1458.415 L 1983.654 1458.415 L 1983.654 1458.415 Q 2002.76 1457.679 2022.077 1452.281 L 2022.077 1452.281 L 2022.077 1452.281 Q 2030.356 1450.072 2039.378 1446.514 L 2039.378 1446.514 L 2039.378 1446.514 Q 2048.4 1442.956 2057.634 1437.803 L 2057.634 1437.803 L 2057.634 1437.803 Q 2066.869 1432.65 2076.103 1425.78 L 2076.103 1425.78 L 2076.103 1425.78 Q 2085.337 1418.909 2093.616 1409.584 L 2093.616 1409.584 L 2096.588 1369.832 L 1958.393 1378.912 L 1958.393 1324.191 L 2171.099 1324.191 L 2168.339 1364.925 L 2137.559 1366.888 L 2140.106 1483.935 L 2140.106 1483.935 Q 2133.101 1492.523 2122.805 1499.026 L 2122.805 1499.026 L 2122.805 1499.026 Q 2112.509 1505.529 2100.303 1510.314 L 2100.303 1510.314 L 2100.303 1510.314 Q 2088.097 1515.099 2074.723 1518.289 L 2074.723 1518.289 L 2074.723 1518.289 Q 2061.349 1521.479 2048.612 1523.687 L 2048.612 1523.687 L 2048.612 1523.687 Q 2018.469 1528.595 1984.928 1529.331 L 1984.928 1529.331 L 1984.928 1529.331 Q 1955.421 1529.331 1932.07 1522.828 L 1932.07 1522.828 L 1932.07 1522.828 Q 1908.719 1516.326 1890.887 1504.425 L 1890.887 1504.425 L 1890.887 1504.425 Q 1873.056 1492.523 1860.319 1476.206 L 1860.319 1476.206 L 1860.319 1476.206 Q 1847.582 1459.888 1839.515 1440.134 L 1839.515 1440.134 L 1839.515 1440.134 Q 1831.448 1420.381 1827.733 1398.051 L 1827.733 1398.051 L 1827.733 1398.051 Q 1824.019 1375.722 1824.019 1351.92 L 1824.019 1351.92 L 1824.019 1351.92 Q 1824.019 1319.284 1831.342 1292.66 L 1831.342 1292.66 L 1831.342 1292.66 Q 1838.666 1266.036 1851.403 1245.056 L 1851.403 1245.056 L 1851.403 1245.056 Q 1864.14 1224.075 1881.335 1208.739 L 1881.335 1208.739 L 1881.335 1208.739 Q 1898.529 1193.403 1918.165 1183.587 L 1918.165 1183.587 L 1918.165 1183.587 Q 1937.801 1173.772 1958.924 1169.232 L 1958.924 1169.232 L 1958.924 1169.232 Q 1980.046 1164.693 2000.637 1165.429 L 2000.637 1165.429 L 2000.637 1165.429 Q 2024.2 1166.656 2046.065 1170.582 L 2046.065 1170.582 L 2046.065 1170.582 Q 2055.406 1172.3 2065.277 1174.631 L 2065.277 1174.631 L 2065.277 1174.631 Q 2075.148 1176.962 2084.488 1180.152 L 2084.488 1180.152 L 2084.488 1180.152 Q 2093.828 1183.342 2102.107 1187.513 L 2102.107 1187.513 L 2102.107 1187.513 Q 2110.386 1191.685 2116.755 1197.083 L 2116.755 1197.083 L 2125.883 1149.725 Z  M 2356.845 1466.022 L 2360.667 1516.08 L 2193.813 1532.275 L 2199.545 1454.244 L 2258.134 1458.906 L 2253.889 1260.883 L 2193.813 1268.49 L 2201.243 1166.901 L 2336.042 1166.901 L 2443.032 1408.603 L 2514.146 1166.901 L 2648.52 1166.901 L 2648.52 1244.688 L 2586.746 1244.688 L 2592.054 1457.434 L 2657.224 1459.397 L 2660.833 1516.08 L 2488.248 1532.275 L 2488.248 1454.244 L 2550.234 1456.452 L 2526.458 1270.943 L 2447.277 1493.505 L 2415.011 1493.505 L 2309.082 1267.999 L 2296.77 1461.36 L 2356.845 1466.022 Z " fill="rgb(255,255,255)"/></g></g></svg>